<?xml version="1.0" encoding="UTF-8"?>
<svg id="Layer_2" data-name="Layer 2" xmlns="http://www.w3.org/2000/svg" viewBox="0 0 304.01 637.23">
  <g id="Layer_1-2" data-name="Layer 1">
    <g>
      <path d="M162.29,529.39c-.12.05-.24.11-.36.15-1.03.38-2.03.56-2.99.56-2.26,0-3.83-.83-4.91-2.03l-.69,2.27-4.18-.51c-2.71-.33-5.05-1.08-7.12-2.08.04,1.36.07,2.72.12,4.07.98,32.15-2.13,69.56,7.75,100.26.62,1.92.46,5.53,3.08,5.1.81-10.98,6-21.32,7.08-32.26.96-9.65-.35-19.49.15-29.15.8-15.44,1.48-30.91,2.07-46.39Z"/>
      <path d="M292.81,302.1c-4.47,5.27-35.92,32.75-40.69,27.83-4.66-23.6,17.29-30.1,30.15-45.31,32.05-37.94,25.45-88.47,1.05-128.55l-33.5-41.94c10.01,36.54,29.19,60.81,15.73,100.42-4.15,12.22-18.82,34.19-33.32,27.44-2.11-.98-35.41-26.16-37.14-28.02-4.7-5.06-5-12.98-9.33-18.54-2.65-3.39-6.46-6-10.69-7.9.81,9.52-.22,19.78-1.23,29.76-.65,6.41-1.26,12.47-1.34,17.96-.41,27.61-.71,55.74-1,82.95-.06,5.4-.12,10.81-.18,16.22,6.38.51,10.43,1.27,10.43,2.12,0,1.54-13.31,2.79-29.74,2.79s-29.74-1.25-29.74-2.79c0-.86,4.13-1.62,10.62-2.14-.06-3.83-.13-7.68-.19-11.49-.33-19.44-.65-38.9-1-58.35-.16-8.76-.79-17.71-1.46-27.18-.89-12.62-1.8-25.55-1.52-38.2-5.28,5.64-11.42,10.27-19.91,12.2l-4.32-4.44c-9.62,5.78-15.19,17.05-23.27,23.38-2.13,1.67-5.33-.1-5.51.13-4.68,5.97.98,20.91-18.79,7.71-39.88-26.61-13.81-86.31-1.7-119.86.57-1.57,4.11-8.55-.73-5.38C15.19,154.86-24.15,225.97,18.42,278.91c12.13,15.08,42.03,30.27,33.71,51.03-17.75-4.59-30.27-20.25-43-32.48-1.73-.37-1.56,2.36-1.12,3.43,3.62,8.88,20.41,24.13,26.03,34.37,6.33,11.54,7.67,24.49,14.79,36.29,3.79,6.28,12.38,13.71,16.13,21.03,1.41-14.89,9.54-2.25,11.81,4.51.4,1.19,1.26,2.22,1.11,3.59l-4.81,2.31c18.74,13.94,6.65,44.05,12.8,56.91,2.75,5.75,13.22,5.79,17.57,10.31,4.37,4.53,4.24,13.14,8.53,19.33,4.47,6.44,12.61,8.63,16.18,12.84,5.64,6.66,8.09,20.82,21.65,22.49l3.5-11.56c5.15,1.59.99,13.7,6.94,11.53,6.96-2.54,16.51-17.88,22.05-24.42,2.97-3.51,8.11-5.29,10.42-8.17,4.8-5.98,3.95-15.11,9.24-20.95,4.89-5.4,16.07-5.74,18.79-11.41,3.66-7.65-.23-26.03,1.31-35.83,1.19-7.6,7.62-12.39,8.65-16.96,1.32-5.89-3.07-15.01,6.33-21.47l1.23,4.51c2.17.63,2.92.32,4.61-.99,14.29-11.07,19.39-36.61,27.43-51.52,5.42-10.06,20.4-24.14,23.65-32.1.43-1.07.61-3.8-1.12-3.43ZM156.37,414.47c.81-1.04,1.31-3.57,2.06-4.8l1.18,3.39.93-6.94,1.77,2.29c-.35,3.54-.36,7.11-.5,10.66-.02.42-.45,1.32,0,1.61.75-3.48,1.24-7.05,2.12-10.5.05-.19-.01-.55.25-.51v15.84l-6.6,16.34.33-15.99-4.54-9.33c.02-.25,2.62-1.57,3-2.05ZM140.38,410.17c.83-1.69,2.11-4.13,3.1-5.7.09-.15.16-.38.37-.39l2.21,17.1.51-12.19,5.58,9.56-3.02,8.66c-.37,5.88-.1,11.79-.19,17.68-.25-.04-.33-.31-.42-.51-2.51-5.23-4.03-11.58-6.44-16.93-.37-4.94-2.12-10.65-2.29-15.51-.03-.75.28-1.14.59-1.77ZM87.05,348.52c2.97-2.88,37.86,20.23,41.84,25.49-16.51-1.87-35.84-8.68-41.84-25.49ZM113.88,421.1c.32,2.51,1.53,5.58,1.96,8.21.05.29.11.56.07.85l-4.65-5.77c-1.34-3.8-3.19-7.91-3.49-11.94l.51-7.07,3.48-3,3.94,5.88-.64,11.4-1.18-6.43c.23,2.47-.31,5.47,0,7.88ZM102.55,404.85c.09-.61.93-1.81,1.34-2.3v4.23l1.36-4.23c.25-.19,1.99,3.13,2.04,3.63.49,5.17-.53,11.01-1.79,16.01-.05.19,0,.55-.25.51l-2.71-8.72c.3-2.79-.41-6.45.01-9.14ZM97.48,400.47c.1-.3,2.5-1.64,2.68-1.47.08,2.04,1.23,4.4,1.36,6.36.12,1.89-.8,4.31-.68,6.27l1.02,7.7-4.02-7.41c-.46-2.91-.88-5.84-1.23-8.76-.02-.14-.06-.61.17-.33l1.02,2.96-.31-5.31ZM90.68,407.3c-.29-.04-.29-.34-.38-.54-.29-.61-2.17-5-2.12-5.28,1.01-1,1.73-2.28,2.84-3.16l-.34,8.98ZM93.53,409.95c-.22-.45-1.66-4.2-1.66-4.43v-7.03l1.7,4.4c.31-.12.18-.99.17-1.27-.1-1.55-.39-3.11-.5-4.66l2.68,3.18-.31,6.56,1.52,8.81c-.11.23-.33-.22-.38-.3-.93-1.33-2.51-3.83-3.21-5.26ZM98.43,442.64c-.25-.38-1.37-2.6-1.45-2.95-.23-1.12.09-2.65-.04-3.82l4.07-3-2.2,9.99c-.4.08-.27-.05-.38-.22ZM102.87,448.62l-2.33-1.14-.68-6.2c1.7-1.61,3.35-3.71,5.13-5.2.19-.16.28-.41.59-.34l-2.16,5.54c-.23.98.36,2.03.29,2.99-.09,1.31-.89,2.95-.84,4.34ZM104.6,454.6c-.03-1.79-.81-3.84-.88-5.56-.05-1.2.78-4.35,1.1-5.67.07-.27.11-.93.43-1.01v4.4c.25,0,.32-.48.41-.69.93-2.13,1.65-4.83,2.67-6.81.11-.21.29-.55.3-.04-.64,3.6-.26,7.78-.86,11.33-.27,1.58-1.18,3.4-1.51,5.01l-1.66-.96ZM111.59,461.66l-2.54-.51-1.94-4.67,1.96-6.32,4.39-5.94-2.46,11.1.3-.04,1.9-3.77v4.83l-1.61,5.34ZM118.09,470.1l-1.66.46-3.82-4.66c-.05-2.87.93-5.76,1.11-8.65.11-.01.34.23.34.25v3.13l2.71-10.67.34,8.38c-.07,1.22.89,2.32,1.02,3.39.31,2.55-.22,5.75-.03,8.36ZM116.95,410.76l2.27-5.83,4.48-1.7.68,5.93,1.1-2.71,2.62,5.86-3.74,8.8,2.21,13.12c-.43.1-.3-.12-.44-.32-2.46-3.49-4.5-7.51-6.88-11.08l-2.31-12.07ZM126.33,478.77l-3.99-2.78-1.01-11.78c-.24.1-.27.86-.31,1.12-.21,1.45-.3,2.94-.53,4.38-.04.25,0,.52-.34.59l-.47-7.2c1-5.26,1.57-10.61,2.56-15.87.04-.19.03-.67.29-.64l3.19,19.76,3.92,6.56-3.31,5.86ZM129.64,409.58c-.02-.85-.47-1.83.01-2.69l2.94-4.33,2.63,5.67-1.02,8.73,2.45-6.09c.19,0,.71,1.6.81,1.9.41,1.22,1.8,5.3,1.83,6.32.01.37-.07.51-.21.81-.68,1.56-2.63,3.3-3.32,4.97l.06,12.76-.18.67-5.68-12.95-.33-15.76ZM138.31,485.18c-.14.02-.26.04-.37-.05l-4.99-5.35c-.2-.76-2.3-4.05-2.3-4.48v-19.39l2.37,11.52.21-10.88,5.55-11.13-1.02,16c.8,3.71,3.07,7.59,3.85,11.22.5,2.35.78,6.61.89,9.1.03.61-.02,1.23.01,1.84-1.22.17-3.14,1.45-4.2,1.6ZM155.89,484.95c-.17,2.03-2.06,2.68-3.39,3.97v-16.43l-1.86,16.94-6.1-4.15c-.17-.13-.16-.31-.18-.5-.13-1.09-.12-4.32.05-5.39.69-4.38,3.29-9.6,4.15-14.14.76-4.05,1.05-8.69,1.57-12.83.03-.23.11-.53.34-.25l5.77,21.6c-.51,3.61-.04,7.58-.35,11.18ZM169.1,478.52c-.09.73-2.11,4.62-2.64,5.32-1.22,1.6-3.23,3.05-4.38,4.77-.14.15-.31.16-.5.15-.24-.01-4.3-1.49-4.44-1.68.41-3.05.41-6.18.78-9.24.35-2.99,2.13-5.01,3.3-7.71l3.14-11.34.17,9.65,3.05-16.43c.22,2.35,1.32,4.9,1.52,7.2.55,6.15-.41,13.08,0,19.31ZM165.95,415.26c.65-.56,1.82-1.02,2.41-1.58,2.08-1.99,4.12-5.85,6.16-8.15.14-.16.29-.38.5-.43l-1.86,11.09c.12.24.33-.22.37-.3.48-.82.86-1.71,1.41-2.49.17,3.16-.15,6.36-.3,9.53l-5.04,15.03v-13.29l-3.65-9.4ZM175.78,481.98l-2.79,1.02,3.22-10.5-4.4,8.64c-.62-.55-1.14-1.55-1.28-2.36-.17-.96-.55-4.83-.26-5.53.54-1.26,3.19-3.99,3.39-5.08l.51-14.06.34-2.62,4.19,15.37.56,9.44c-.81,2.02-2.48,3.7-3.48,5.66ZM187.38,409.5l-1.91,14.43-7.4,9.96,1.71-13.29-2.32-9.74,3.24-4.06.34,3.05,6.01-6.6-2.71,15.75,3.04-9.48ZM184.84,476.31c-.64.3-1.36-.48-2-.62l.48-7.42-2.03,6.94c-.44.08-.26-.06-.35-.24-.45-.88-.68-2.01-1.12-2.91l1.65-14.2-1.02-14.15c.69.8,1.21,1.84,1.72,2.77,1.45,2.62,3.2,5.57,4.46,8.24.79,1.66.61,5.67.76,7.71.25,3.38.56,6.76.8,10.14l-3.34,3.75ZM188.76,411.93c-.13-2.11,1.57-5.43,1.68-7.68.67.31.15,1.08.16,1.61,0,.48.14.82.17,1.21.03.38-.41.88.18,1.08l1.61-6.77,3.1,3.84.53,11.64-7.78,13.14,1.66-11.77c-.16-1.99-1.18-4.37-1.3-6.29ZM191.36,468.94c-.38.44-1.8-.24-1.91-.62l-.72-7.59c.97-2.52.59-4.58.52-7.12-.05-1.73.06-3.44-.17-5.16l3.55,10.5c-.04-.87.05-1.76,0-2.62,0-.16-.48-1,0-1.1l2.16,8.53-3.43,5.18ZM197.51,460.27c-.64.09-2.28.68-2.64.1-.7-1.15-.83-3.91-1.55-5.22v-4.49c.39-.07.27.02.38.22.56,1.04,1.05,2.37,1.61,3.47.2.39.21.38.21-.04l-2.46-11.1,4.39,5.94,1.97,6.34-1.91,4.78ZM197.03,407.2c-.03-.88,2.09-5.44,2.63-6.51.1-.2.16-.47.42-.51l.68,8.81,1.01-5.08-.37,9.87-3.86,9.1.52-8.38c-.15-2.34-.95-5-1.03-7.29ZM201.92,453.84l-1.66.71-1.51-5.18-.69-11.25,3.05,7.62.5-4.23c.1,2.22,1.32,4.68,1.18,6.86-.11,1.75-.74,3.7-.88,5.47ZM205.99,446.65l-2.17,1.13c-.12-1.38-.9-3.22-.98-4.53-.05-.76.49-1.79.39-2.59l-2.12-5.92,5.67,5.74-.79,6.18ZM203.98,409.76c-.17-1.86-1.48-4.94-1.36-6.6.03-.48.45-1.34.86-1.61.37,1.66.5,3.47.9,5.12.04.17.05.51.29.47l.42-8.13c.48.78,1.5,2.19,1.71,3.03.48,1.91.32,4.38.76,6.36l-3.57,11.1c-.29.04-.16-.39-.17-.59-.11-2.96.43-6.15.17-9.14ZM209.53,438.84c-.19.91-1.31,2.16-1.49,3.17l-2.54-9.99c.28-.05.46.13.66.27.42.28,3.3,2.51,3.37,2.73-.06,1.15.22,2.73,0,3.82ZM209.45,414.2c-.09.21-.09.5-.38.55.03-2.29-.04-4.58,0-6.87.01-.92.29-1.84.18-2.87-.16-1.42-1.06-3.11-1.32-4.55l2.41-3.49c.23.15.23.34.26.59.22,1.88.21,3.81.5,5.68l.67-4.49.34-.59,1.16,5.8c-1.39,3.31-2.37,6.99-3.82,10.25ZM214.82,404.25l-1.86-11.18,2.88,3.47-1.02,7.7ZM175.39,374.01c3.4-5.84,39.16-28.06,41.83-25.5-8.27,19.7-20.36,28.04-41.83,25.5Z"/>
      <path d="M98.68,156.82c9.26-14.42,37.83-18.86,41.46,1.64,2.47,13.97-4.22,15.85-5.39,25.48-3.15,25.94,1.48,54.66,1.94,80.54.42,23.62.81,47.22,1.21,70.81,6.26.51,11.51.62,13.37.64,0-1.81-.02-3.63-.11-5.44-.17-3.56-1.75-7.03-1.88-10.93-1.22-38.49-.45-77.02-1.67-115.51-.32-10.05-3.58-21.23-1.88-31.97l3.7,7.28,5.38.04,3.64-5.48-4.79,161.99c2.4-.04,7.15-.18,12.64-.63.36-33.41.69-66.79,1.19-100.1.24-16.19,4.88-36.79,1.82-52.95-1.08-5.7-8.12-13.41-7.22-22.04.64-6.13,8.97-14.72,15.71-15.45,20.18-2.18,26.14,10.25,34.37,25.47,9.51-17.84,14.82-23.37-7.01-29.53-13.16-3.72-29.71-4.64-43.06-5.2l-.26-85.2c-9.57-12.42,15.05-17.39-3.22-27.4,2.7-2.98,5.22-12.28,3.22-15.37-.35-.54-9.11-2.43-9.76-7.52l-11.61,10.23,5.02,12.67c-14.66,7.85-2.29,12.17-1.87,20,.65,12.08-2.6,28.35-2.7,40.69-.15,17.18,2.09,34.59,1.13,51.88-14.44.64-31.79,1.69-45.91,6.01-20.7,6.34-10.49,12.1-6.87,28.77,3.96,3.02,7.73-10.87,9.38-13.43Z"/>
    </g>
  </g>
</svg>