<?xml version="1.0" encoding="UTF-8"?>
<svg id="Layer_2" data-name="Layer 2" xmlns="http://www.w3.org/2000/svg" viewBox="0 0 109.06 137.87">
  <defs>
    <style>
      .cls-1 {
        fill: #fff;
      }
    </style>
  </defs>
  <g id="Layer_1-2" data-name="Layer 1">
    <g>
      <path class="cls-1" d="M87.76,107.13l-27.02-34.68L54.54,1.35l-6.57,71.19-26.65,34.59L54.54,0l33.22,107.13ZM28.33,120.71l18.74-39.34-26.03,36.6-.08,1.46,3.97,18.44,3.41-17.16ZM88.1,118.26l-26.1-36.44,18.85,39.69c1.17,4.72,1.69,10.01,2.98,14.65.13.47.11,1.37.76,1.26l3.51-19.16ZM54.44,87.4c-3.97,0-7.2,3.22-7.2,7.2s3.22,7.2,7.2,7.2,7.2-3.22,7.2-7.2-3.22-7.2-7.2-7.2ZM54.46,104.74c-3.07,0-5.57,2.49-5.57,5.57s2.49,5.57,5.57,5.57,5.57-2.49,5.57-5.57-2.49-5.57-5.57-5.57Z"/>
      <g>
        <path class="cls-1" d="M19.55,65.08l-8.73-17.69,4.28-7.29,1.35-.35-.35-1.35,4.32-7.34,19.7-.98,2.35-4.01h1.88s1.24-3.98,1.24-3.98l-30.9.11L0,48.37l24.29,42.43,1.73-5.58-8.96-15.9,2.49-4.24ZM15.77,67.03l-10.45-18.55,11.45-22.46,23.07.05-1.07,1.83-6.28.27-1.49,1.53-6.33.32-1.73-1.02-3.87.15-4.7,7.99.42,1.63-1.63.42-4.7,7.99,1.75,3.46,1.82,1.07,2.75,5.58-.65,2.19,2.8,5.58-1.16,1.97Z"/>
        <path class="cls-1" d="M94.81,22.75l-1.66-.83-29.68.1,1.27,4.09h3.1s2.28,3.99,2.28,3.99l19.69,1.21,4.23,7.4-.37,1.34,1.34.37,4.2,7.34-8.93,17.59,1.98,3.46-9.22,16.32,1.75,5.65,24.28-42.42-14.25-25.62ZM92.9,65.36l2.86-5.55-.63-2.19,2.82-5.54,1.84-1.05,1.79-3.44-4.6-8.04-1.63-.44.44-1.63-4.6-8.04-3.87-.2-1.75,1-6.33-.39-1.47-1.55-6.28-.35-1.03-1.81,21.41.05,11.87,22.29-10.19,18.04-.66-1.15Z"/>
        <path class="cls-1" d="M41.83,112.05l-.99-.51-3.21-5.71-2.15,4.52,3.2,5.59h10.76c-1.15-1.03-1.99-2.4-2.35-3.95l-5.26.05Z"/>
        <path class="cls-1" d="M67.97,111.79l-6.1.06c-.34,1.61-1.2,3.03-2.38,4.09h10.9l3.07-5.36-2.19-4.62-3.29,5.82Z"/>
        <path class="cls-1" d="M43.72,109.29h3.25c.1-.76.32-1.48.63-2.15h-2.92l-4.44-6.76-.42.88,1.81,2.76v2.01l2.09,3.26Z"/>
        <path class="cls-1" d="M64.64,109.29l2.09-3.26v-2.11l2.06-3.13-.42-.88-4.75,7.24h-2.29c.31.67.53,1.39.63,2.15h2.69Z"/>
      </g>
    </g>
  </g>
</svg>